<?xml version="1.0" encoding="utf-8"?>
<svg id="mask" width="800px" height="800px" viewBox="-7.5 0 58 58" version="1.1" xmlns="http://www.w3.org/2000/svg">
  <title/>
  <desc/>
  <g fill="none" fill-rule="evenodd" id="Page-1" stroke="none" stroke-width="1">
    <g id="007---Coffee-Cup">
      <path d="M 36 4.952 L 6 4.952 L 6 1.085 C 5.999 0.811 6.112 0.548 6.311 0.36 C 6.511 0.172 6.779 0.075 7.053 0.092 C 16.343 0.652 25.657 0.652 34.947 0.092 C 35.221 0.075 35.489 0.172 35.689 0.36 C 35.888 0.548 36.001 0.811 36 1.085 L 36 4.952 Z" stroke="#000" id="Path"/>
      <path d="M 35.2 46 L 34.18 56.2 C 34.077 57.222 33.217 58 32.19 58 L 9.81 58 C 8.783 58 7.923 57.222 7.82 56.2 L 6.8 46 L 6.096 45.375 L 3.321 21.781 C 2.793 21.781 3.772 21 4.3 21 L 3.1 9 L 38.9 9 L 37.7 21 C 38.76 21 39.036 21.77 38.799 21.77 L 35.973 45.441 L 35.2 46 Z" stroke="#000" id="Path"/>
      <path d="M35.113,46 L6.887,46 C6.3807028,46.0000535 5.95424936,45.6216996 5.894,45.119 L3.134,22.119 C3.09997017,21.835067 3.18912525,21.5501497 3.37893202,21.3362587 C3.56873878,21.1223677 3.84103502,20.9999698 4.127,21 L37.873,21 C38.158965,20.9999698 38.4312612,21.1223677 38.621068,21.3362587 C38.8108747,21.5501497 38.9000298,21.835067 38.866,22.119 L36.106,45.119 C36.0457506,45.6216996 35.6192972,46.0000535 35.113,46 Z" stroke="#000" id="Path"/>
      <rect stroke="#000" height="4" id="Rectangle" rx="1" width="43" x="0" y="5"/>
    </g>
  </g>
</svg>